<?xml version="1.0" encoding="utf-8"?>
<svg xmlns="http://www.w3.org/2000/svg" version="1.0" width="1969.000000pt" height="1969.000000pt" viewBox="0 0 1969.000000 1969.000000" preserveAspectRatio="xMidYMid meet">

<g transform="translate(0.000000,1969.000000) scale(0.100000,-0.100000)" fill="#000000" stroke="none">
<path d="M9739 14531 c-23 -19 -24 -24 -31 -242 -4 -152 -3 -228 4 -236 6 -8&#xA;33 -13 64 -13 64 0 63 -3 67 154 l2 110 80 -132 80 -132 44 -6 c76 -12 75 -16&#xA;84 245 5 127 6 238 3 246 -8 22 -88 20 -109 -3 -11 -12 -18 -50 -24 -131 l-8&#xA;-113 -74 124 c-41 67 -81 129 -89 136 -23 18 -66 15 -93 -7z"/>
<path d="M9335 14523 c-22 -3 -45 -9 -51 -14 -7 -5 -38 -115 -70 -244 -53&#xA;-211 -74 -269 -74 -199 0 14 -7 27 -16 31 -9 3 -59 -3 -113 -14 -54 -12 -100&#xA;-17 -105 -12 -5 4 -26 88 -47 184 -20 97 -39 178 -42 181 -8 9 -89 -14 -105&#xA;-29 -8 -9 -14 -26 -14 -39 0 -33 83 -431 92 -441 4 -5 83 8 176 28 93 20 198&#xA;39 234 41 73 6 93 19 93 64 0 25 5 31 26 36 14 3 54 14 89 25 34 10 64 19 67&#xA;19 2 0 13 -19 23 -42 26 -60 38 -67 99 -59 29 4 56 11 60 15 4 4 -45 113 -110&#xA;241 -130 261 -109 238 -212 228z m66 -204 c16 -34 28 -67 25 -74 -5 -15 -82&#xA;-42 -92 -33 -5 6 26 168 33 168 1 0 17 -27 34 -61z"/>
<path d="M10295 14495 c-14 -13 -25 -28 -25 -33 0 -5 -14 -103 -30 -218 -17&#xA;-114 -27 -211 -23 -215 5 -4 87 -19 183 -33 198 -30 200 -29 200 45 l0 37 -67&#xA;11 c-38 6 -90 14 -118 19 -49 7 -50 8 -51 43 -1 20 -4 41 -7 46 -4 6 33 4 89&#xA;-4 53 -8 102 -12 108 -10 7 3 16 23 19 44 8 48 -4 58 -81 68 -100 12 -100 12&#xA;-104 61 -2 24 -3 44 -3 44 0 -1 54 -9 120 -20 137 -21 145 -18 145 52 0 31 -4&#xA;39 -22 43 -24 5 -292 45 -303 45 -3 0 -17 -11 -30 -25z"/>
<path d="M10832 14397 c-76 -24 -138 -143 -149 -288 -5 -57 -2 -73 17 -108 30&#xA;-53 80 -86 159 -107 152 -38 270 42 275 186 l1 45 -65 22 c-83 27 -105 28&#xA;-131 2 -34 -34 -21 -60 37 -77 l51 -14 -24 -24 c-36 -36 -60 -45 -98 -38 -53&#xA;10 -85 39 -85 77 0 43 33 160 54 191 32 49 118 30 149 -33 11 -24 80 -50 130&#xA;-51 21 0 23 46 3 94 -39 93 -213 159 -324 123z"/>
<path d="M8335 14307 l-60 -22 -6 -105 c-9 -139 -11 -415 -3 -422 9 -10 107&#xA;27 118 45 7 12 7 25 -1 46 -10 28 -9 30 17 36 16 3 54 22 87 41 l58 36 40 -46&#xA;40 -47 55 19 c30 10 56 25 57 33 3 18 -307 403 -327 406 -8 1 -42 -8 -75 -20z&#xA;m104 -192 c22 -30 41 -58 41 -63 0 -8 -71 -52 -84 -52 -3 0 -6 38 -6 85 0 47&#xA;2 85 4 85 2 0 22 -25 45 -55z"/>
<path d="M11334 14220 c-50 -25 -77 -61 -116 -153 -74 -178 -34 -281 130 -336&#xA;79 -27 117 -26 172 2 52 26 97 92 131 196 39 116 25 178 -52 244 -76 66 -187&#xA;85 -265 47z m171 -122 c24 -19 27 -26 23 -67 -7 -65 -61 -178 -92 -192 -48&#xA;-22 -116 18 -116 68 0 35 52 162 77 189 28 30 71 31 108 2z"/>
<path d="M7905 14136 c-57 -19 -184 -82 -206 -102 -11 -9 -19 -27 -19 -38 0&#xA;-25 186 -420 199 -424 11 -4 107 44 115 56 3 5 -8 37 -24 71 -17 35 -30 68&#xA;-30 74 0 7 30 27 66 46 116 60 151 140 103 238 -11 23 -33 52 -49 63 -37 26&#xA;-105 33 -155 16z m66 -127 c29 -29 22 -68 -20 -96 -49 -33 -67 -29 -91 16 -10&#xA;22 -25 41 -32 44 -13 5 87 57 110 57 6 0 21 -9 33 -21z"/>
<path d="M11978 13958 c-19 -16 -238 -377 -238 -394 0 -16 199 -133 255 -150&#xA;107 -32 174 12 261 170 82 151 32 246 -191 365 -46 24 -65 26 -87 9z m112&#xA;-153 c59 -38 76 -67 61 -113 -17 -57 -82 -145 -114 -156 -23 -8 -37 -6 -73 13&#xA;-25 14 -44 31 -44 40 0 9 27 61 60 114 33 54 60 104 60 112 0 20 4 19 50 -10z"/>
<path d="M7385 13866 c-87 -41 -155 -131 -155 -204 0 -35 55 -147 106 -215 67&#xA;-92 166 -110 275 -50 92 49 150 147 133 221 -20 80 -118 224 -174 252 -53 27&#xA;-122 26 -185 -4z m129 -139 c52 -54 100 -148 91 -177 -20 -62 -93 -79 -137&#xA;-32 -38 39 -98 142 -98 167 0 40 45 82 89 84 8 1 33 -18 55 -42z"/>
<path d="M12441 13643 c-40 -37 -271 -334 -271 -347 1 -13 82 -76 97 -76 15 0&#xA;84 86 91 114 l7 24 33 -27 32 -28 -15 -72 c-24 -114 -22 -121 35 -164 36 -27&#xA;51 -33 57 -24 4 6 15 52 23 102 l15 89 44 8 c63 11 103 38 129 88 50 99 16&#xA;163 -151 289 -37 28 -74 51 -82 51 -8 0 -28 -12 -44 -27z m122 -157 c41 -33&#xA;48 -67 20 -98 -24 -27 -55 -22 -99 16 l-38 33 27 36 c15 20 27 41 27 47 0 13&#xA;11 7 63 -34z"/>
<path d="M9411 13609 c-228 -20 -541 -83 -592 -120 -16 -11 -33 -36 -40 -59&#xA;-11 -35 -8 -48 39 -177 27 -76 75 -221 107 -323 59 -191 161 -427 222 -514&#xA;l33 -46 86 95 86 96 -43 72 c-76 128 -117 211 -154 308 -56 144 -136 382 -131&#xA;387 14 13 252 33 471 38 194 5 293 3 444 -10 188 -17 507 -59 516 -68 3 -3&#xA;-20 -88 -50 -189 -31 -101 -80 -275 -111 -386 -54 -199 -55 -203 -38 -235 22&#xA;-44 71 -115 106 -156 l28 -32 28 57 c38 76 61 149 183 573 56 195 108 378 117&#xA;406 14 48 13 54 -4 90 -11 21 -32 46 -49 55 -35 20 -402 92 -615 120 -169 23&#xA;-485 32 -639 18z"/>
<path d="M6766 13398 l-56 -53 94 -240 c52 -132 100 -241 106 -243 18 -6 90&#xA;69 90 94 0 13 -7 30 -16 39 -15 15 -14 19 13 48 23 25 77 95 89 115 1 2 26 -9&#xA;57 -24 l55 -27 46 39 c25 21 45 43 43 49 -3 9 -445 255 -459 255 -4 0 -32 -24&#xA;-62 -52z m224 -182 c0 -12 -50 -86 -59 -86 -4 0 -20 35 -36 77 -17 42 -31 80&#xA;-33 84 -2 5 26 -8 62 -28 36 -20 66 -41 66 -47z"/>
<path d="M12837 13290 c-19 -16 -92 -91 -162 -165 l-128 -136 129 -130 c71&#xA;-71 134 -129 139 -129 6 0 26 16 45 35 l33 34 -88 85 -88 84 22 27 c11 15 21&#xA;35 21 44 0 9 30 -14 73 -57 40 -39 77 -72 82 -72 5 0 24 14 42 32 l33 32 -67&#xA;68 -67 68 22 29 c12 17 22 36 22 43 0 7 43 -30 95 -82 l95 -95 36 37 c25 25&#xA;34 40 28 49 -5 8 -59 63 -120 122 -124 120 -141 127 -197 77z"/>
<path d="M10953 13248 c-6 -7 -55 -119 -111 -248 -55 -129 -122 -282 -149&#xA;-340 -44 -97 -48 -111 -48 -185 0 -69 5 -89 32 -147 38 -81 81 -125 198 -203&#xA;49 -32 130 -98 180 -145 50 -47 142 -120 204 -164 110 -76 114 -78 161 -74 60&#xA;6 71 15 320 250 279 264 344 335 365 398 42 126 12 223 -101 329 -222 207&#xA;-549 417 -786 505 -81 30 -110 36 -176 36 -52 0 -83 -4 -89 -12z m286 -314&#xA;c171 -89 617 -353 652 -386 22 -20 29 -35 29 -64 0 -33 -7 -44 -52 -87 -60&#xA;-55 -453 -357 -465 -357 -10 1 -129 88 -212 155 -34 28 -110 79 -168 115 -117&#xA;72 -142 98 -150 156 -4 34 9 68 114 287 65 136 120 247 122 247 2 0 61 -30&#xA;130 -66z"/>
<path d="M8390 13195 c-114 -38 -341 -155 -472 -242 -162 -109 -381 -284 -418&#xA;-334 -40 -56 -64 -139 -56 -196 13 -99 38 -133 230 -316 216 -207 382 -358&#xA;416 -379 14 -9 44 -19 67 -23 40 -6 48 -3 110 42 38 26 93 64 123 84 30 19 87&#xA;65 125 101 81 76 130 115 233 182 126 83 188 198 180 335 -3 53 -13 87 -52&#xA;171 -27 58 -96 214 -153 346 -100 231 -106 242 -135 248 -59 12 -124 5 -198&#xA;-19z m320 -759 c0 -11 -9 -40 -19 -62 -16 -34 -34 -51 -106 -94 -48 -29 -132&#xA;-87 -187 -129 -118 -89 -208 -149 -225 -150 -6 -1 -42 25 -80 57 -37 33 -133&#xA;110 -213 172 -191 148 -220 177 -220 213 0 15 5 37 10 48 22 40 391 266 639&#xA;391 l154 78 123 -251 c68 -138 124 -261 124 -273z"/>
<path d="M6481 13097 c-45 -14 -140 -103 -162 -152 -33 -71 -23 -149 25 -206&#xA;41 -49 139 -130 175 -145 73 -30 148 -10 219 59 62 60 86 110 86 182 1 47 -4&#xA;67 -22 93 -13 17 -29 32 -36 32 -6 0 -29 -21 -50 -46 -38 -45 -39 -48 -27 -81&#xA;17 -45 1 -84 -44 -108 -32 -18 -33 -18 -77 8 -24 14 -65 48 -91 76 -55 59 -61&#xA;93 -21 136 23 25 30 27 74 22 49 -6 50 -5 89 41 37 43 39 48 24 64 -17 19 -75&#xA;39 -108 37 -11 -1 -35 -6 -54 -12z"/>
<path d="M13074 12825 c-87 -96 -161 -182 -162 -191 -4 -19 46 -94 62 -94 7 0&#xA;52 14 101 30 49 17 93 29 97 28 4 -2 -18 -41 -48 -88 -29 -47 -54 -89 -54 -94&#xA;0 -15 61 -86 75 -86 13 0 411 214 429 231 9 8 -32 77 -60 99 -11 10 -81 -23&#xA;-248 -118 -4 -2 13 26 38 64 25 38 46 73 46 79 -1 5 -12 23 -25 40 l-24 29&#xA;-63 -23 c-35 -13 -72 -26 -83 -29 -11 -3 19 36 70 92 50 53 91 101 93 106 4&#xA;11 -66 100 -78 100 -4 0 -79 -79 -166 -175z"/>
<path d="M6072 12638 c-43 -62 -87 -125 -96 -139 -33 -52 -18 -69 176 -205 99&#xA;-70 186 -127 194 -128 7 0 61 66 119 148 115 164 114 159 46 199 l-30 18 -67&#xA;-96 c-38 -53 -74 -95 -83 -95 -9 0 -25 7 -35 15 -10 8 -23 12 -27 9 -19 -11&#xA;-7 12 46 87 30 43 55 82 55 87 0 12 -57 52 -74 52 -8 0 -35 -28 -58 -62 -24&#xA;-34 -46 -67 -50 -72 -4 -6 -22 -3 -47 9 l-41 18 65 93 c36 51 68 99 71 107 4&#xA;12 -60 67 -78 67 -4 0 -42 -51 -86 -112z"/>
<path d="M9952 12454 c-351 -103 -565 -265 -687 -517 -59 -123 -78 -201 -73&#xA;-304 l3 -82 -43 42 c-55 54 -101 147 -109 221 -6 56 -6 56 -26 39 -77 -69&#xA;-175 -240 -201 -353 -32 -135 -16 -250 55 -399 103 -218 283 -383 511 -471 95&#xA;-37 102 -37 52 -4 -176 117 -225 279 -137 453 15 30 76 106 138 173 60 65 131&#xA;147 157 181 60 78 106 186 116 274 l8 68 64 -65 c68 -68 123 -160 156 -260 38&#xA;-116 17 -293 -55 -452 -17 -38 -28 -68 -25 -68 17 0 84 43 111 72 33 35 83&#xA;130 83 161 0 9 5 17 11 17 20 0 88 -83 117 -140 73 -148 -5 -331 -184 -427&#xA;-71 -39 -61 -41 40 -8 277 90 487 290 553 526 14 52 17 92 14 214 -9 350 -6&#xA;383 54 518 7 17 4 17 -44 -2 -126 -47 -259 -171 -303 -281 l-25 -63 -7 39&#xA;c-19 109 -84 258 -178 408 -121 192 -133 290 -55 449 40 80 39 80 -91 41z"/>
<path d="M13422 12331 c-101 -60 -188 -113 -193 -118 -10 -10 33 -97 52 -109&#xA;5 -3 56 22 113 55 56 34 105 61 109 61 4 0 -23 -60 -60 -133 -71 -145 -73&#xA;-157 -30 -211 l24 -30 196 115 c256 149 234 131 214 174 -9 20 -28 41 -42 47&#xA;-28 13 -46 6 -173 -68 l-63 -36 71 142 c60 121 68 145 59 163 -21 39 -42 57&#xA;-68 56 -14 0 -108 -48 -209 -108z"/>
<path d="M5856 12308 c-37 -57 -41 -77 -20 -104 21 -27 369 -234 394 -234 15&#xA;0 70 81 70 103 0 11 -406 257 -423 257 -4 0 -13 -10 -21 -22z"/>
<path d="M12285 12251 c-60 -15 -102 -45 -200 -146 -55 -56 -169 -167 -254&#xA;-246 -84 -79 -164 -162 -176 -184 -13 -22 -31 -69 -40 -105 -27 -104 -17 -165&#xA;59 -343 35 -84 78 -189 95 -233 53 -137 116 -204 192 -204 107 0 823 175 919&#xA;225 56 29 64 108 24 237 -42 133 -162 463 -209 572 -64 150 -143 283 -209 354&#xA;-54 59 -136 88 -201 73z m93 -378 c56 -99 247 -492 306 -630 13 -32 21 -61 18&#xA;-64 -32 -31 -651 -134 -672 -113 -4 5 -20 38 -34 73 -14 35 -55 117 -90 182&#xA;-36 65 -68 133 -71 152 -12 60 10 112 73 171 74 71 391 336 401 336 4 0 35&#xA;-48 69 -107z"/>
<path d="M7099 12212 c-73 -38 -143 -133 -234 -317 -117 -238 -272 -659 -282&#xA;-766 -7 -67 13 -111 58 -134 37 -19 506 -139 742 -189 101 -22 179 -34 195&#xA;-30 83 20 125 76 202 269 29 72 70 175 92 230 35 86 40 110 40 175 -1 149 -43&#xA;223 -220 384 -71 63 -179 169 -240 235 -163 173 -237 204 -353 143z m229 -355&#xA;c64 -57 164 -141 222 -186 119 -94 145 -131 145 -206 -1 -44 -14 -75 -94 -230&#xA;-51 -99 -96 -183 -100 -187 -3 -4 -78 8 -166 27 -88 18 -238 46 -332 61 -95&#xA;15 -177 30 -183 34 -19 12 41 161 154 385 92 182 221 405 234 405 2 0 56 -47&#xA;120 -103z"/>
<path d="M5765 12064 c-52 -27 -73 -54 -125 -160 -54 -112 -60 -142 -32 -167&#xA;22 -20 388 -197 408 -197 11 0 64 96 64 116 0 2 -31 20 -70 39 -38 19 -70 41&#xA;-70 48 0 6 11 39 25 72 47 115 25 197 -65 243 -52 26 -93 28 -135 6z m92 -146&#xA;c18 -14 16 -51 -4 -93 -19 -39 -26 -41 -77 -20 -20 9 -41 13 -46 10 -14 -8&#xA;-13 -3 9 47 26 61 48 81 80 73 14 -4 32 -11 38 -17z"/>
<path d="M13678 11862 c-109 -48 -199 -91 -201 -97 -4 -10 131 -327 145 -340&#xA;3 -4 27 3 53 14 36 16 46 25 41 37 -4 10 -25 60 -48 112 -40 90 -41 96 -24&#xA;106 11 6 27 19 37 28 20 19 16 25 81 -124 11 -27 25 -48 30 -48 5 0 27 9 48&#xA;20 45 23 46 8 -11 139 -22 53 -22 55 -4 65 10 6 26 18 35 27 16 16 21 10 66&#xA;-93 26 -61 54 -112 61 -115 15 -6 68 14 82 31 7 8 -10 56 -52 152 -34 78 -68&#xA;148 -76 157 -7 10 -25 17 -40 17 -14 -1 -115 -40 -223 -88z"/>
<path d="M13866 11420 c-110 -33 -204 -64 -209 -69 -9 -9 17 -106 32 -115 4&#xA;-3 58 11 121 30 63 18 119 34 124 34 6 0 -16 -23 -47 -51 -40 -36 -57 -58 -57&#xA;-75 0 -48 16 -62 96 -79 41 -10 73 -19 71 -21 -2 -3 -55 -20 -118 -38 -62 -18&#xA;-115 -39 -117 -45 -7 -20 20 -102 34 -108 15 -5 453 122 467 136 13 13 -21&#xA;109 -41 115 -9 3 -60 15 -112 26 -52 11 -103 23 -114 26 -15 5 -2 22 74 99 88&#xA;88 92 95 86 126 -8 43 -33 69 -65 68 -14 0 -116 -27 -225 -59z"/>
<path d="M5455 11458 c-21 -56 -95 -318 -95 -335 0 -27 46 -65 74 -61 17 2 26&#xA;22 50 101 17 53 33 97 37 97 4 0 51 -67 105 -149 l97 -150 49 -12 c27 -6 51&#xA;-10 53 -8 5 6 115 374 115 386 0 13 -53 33 -86 33 -13 0 -25 -7 -28 -17 -27&#xA;-95 -58 -193 -60 -193 -1 0 -47 65 -102 145 -91 133 -102 146 -143 160 -54 18&#xA;-60 18 -66 3z"/>
<path d="M10595 10420 c-312 -36 -515 -185 -557 -408 -29 -157 57 -332 218&#xA;-443 66 -45 197 -108 374 -179 194 -78 254 -108 308 -155 87 -75 104 -164 48&#xA;-258 -54 -93 -214 -136 -396 -108 -90 14 -155 43 -277 122 -115 74 -165 93&#xA;-208 79 -75 -25 -114 -107 -89 -190 54 -183 264 -270 650 -270 88 0 187 5 220&#xA;11 342 61 529 258 512 539 -6 105 -41 175 -132 265 -91 90 -165 131 -460 255&#xA;-131 55 -258 111 -281 125 -72 42 -125 119 -125 182 0 48 39 111 85 139 63 36&#xA;99 45 202 45 113 1 161 -13 318 -87 175 -82 189 -87 231 -69 65 27 93 137 55&#xA;220 -53 117 -214 177 -506 189 -60 3 -146 1 -190 -4z"/>
<path d="M14022 10419 c-318 -31 -572 -192 -711 -450 -64 -119 -92 -231 -98&#xA;-389 -6 -164 11 -286 61 -425 101 -282 290 -455 582 -531 85 -23 121 -27 254&#xA;-28 171 -1 247 10 375 55 117 41 208 95 291 172 162 151 253 353 272 609 29&#xA;371 -116 696 -381 856 -169 102 -422 153 -645 131z m181 -239 c210 -31 354&#xA;-197 408 -470 8 -37 13 -134 13 -225 0 -130 -4 -176 -22 -247 -41 -165 -124&#xA;-284 -240 -346 -81 -43 -152 -56 -275 -50 -94 4 -112 8 -178 40 -144 68 -239&#xA;206 -281 405 -26 129 -21 366 11 486 70 264 224 397 481 416 8 0 46 -4 83 -9z"/>
<path d="M5100 10399 c-243 -50 -405 -196 -442 -397 -22 -119 20 -239 121&#xA;-345 95 -101 194 -157 467 -265 195 -78 266 -114 319 -163 224 -206 -35 -434&#xA;-394 -347 -68 16 -178 69 -262 125 -109 73 -137 82 -196 57 -62 -25 -86 -67&#xA;-79 -140 12 -139 135 -244 336 -289 114 -25 440 -32 550 -11 191 36 337 121&#xA;433 254 95 131 95 336 -2 474 -86 125 -188 189 -503 319 -310 128 -378 171&#xA;-414 265 -22 57 -12 105 32 153 52 59 121 84 224 84 122 -1 207 -25 356 -99&#xA;138 -70 183 -80 226 -52 58 38 75 146 37 225 -55 113 -250 174 -558 172 -114&#xA;0 -182 -6 -251 -20z"/>
<path d="M6405 10399 c-207 -30 -254 -111 -153 -260 66 -96 70 -128 75 -584 7&#xA;-523 5 -535 -99 -728 -31 -59 -28 -104 10 -138 38 -34 90 -49 200 -58 191 -15&#xA;335 17 368 82 22 42 13 83 -35 162 -22 38 -42 85 -45 109 -12 93 -17 894 -7&#xA;991 10 87 17 111 56 190 25 50 45 96 45 103 0 32 -33 80 -68 99 -70 40 -208&#xA;52 -347 32z"/>
<path d="M7491 10399 c-214 -13 -288 -34 -316 -89 -21 -41 -19 -67 11 -130 37&#xA;-77 45 -235 33 -635 -14 -469 -23 -579 -53 -668 -33 -94 -33 -127 0 -167 63&#xA;-74 144 -85 669 -85 535 1 622 14 678 104 31 51 30 131 -2 165 -43 45 -79 48&#xA;-251 20 -191 -31 -421 -42 -504 -24 -112 23 -150 99 -151 300 0 145 10 173 74&#xA;197 61 24 220 23 357 -1 108 -19 158 -14 211 21 77 51 70 225 -11 278 -52 34&#xA;-85 36 -250 13 -139 -19 -167 -20 -230 -9 -125 21 -140 43 -134 201 3 87 7&#xA;113 28 154 14 28 36 58 50 68 47 34 144 42 338 29 337 -25 346 -25 385 -6 40&#xA;19 60 56 60 115 0 57 -30 101 -88 130 l-50 25 -360 1 c-198 1 -420 -2 -494 -7z"/>
<path d="M8877 10399 c-91 -21 -147 -72 -147 -131 0 -13 16 -61 36 -108 47&#xA;-114 55 -206 57 -650 1 -414 -10 -571 -48 -656 -59 -133 -6 -206 164 -225 42&#xA;-5 256 -5 476 -1 428 9 446 11 501 63 30 28 47 98 42 166 -4 48 -10 61 -37 85&#xA;-43 39 -88 37 -181 -7 -89 -43 -191 -59 -334 -53 -120 6 -159 22 -176 72 -19&#xA;60 -30 253 -30 566 0 387 10 512 45 605 46 122 36 178 -43 230 -73 48 -223 68&#xA;-325 44z"/>
<path d="M11677 10376 c-59 -16 -84 -39 -97 -87 -8 -29 -7 -47 6 -81 54 -144&#xA;69 -334 68 -838 l-1 -375 -28 -100 c-41 -145 -41 -156 -11 -193 34 -40 84 -56&#xA;171 -55 103 0 181 26 231 77 52 51 62 94 46 189 -26 148 -6 338 42 409 46 69&#xA;125 41 245 -87 33 -36 130 -153 217 -262 176 -222 226 -278 269 -300 51 -27&#xA;127 -43 205 -43 136 1 196 51 155 130 -9 17 -71 89 -138 159 -194 202 -511&#xA;578 -552 655 -12 22 -16 42 -11 60 10 41 171 223 377 426 103 102 193 195 199&#xA;208 15 31 -5 70 -50 96 -28 17 -51 21 -120 20 -148 -1 -190 -24 -289 -158&#xA;-193 -260 -510 -551 -553 -508 -29 29 -36 263 -12 401 19 112 14 148 -29 188&#xA;-44 42 -84 60 -158 72 -81 14 -122 13 -182 -3z"/>
<path d="M12845 8289 c-1223 -12 -2453 -43 -2508 -65 -10 -3 -16 -12 -14 -18&#xA;3 -7 110 -185 239 -396 309 -508 458 -757 803 -1345 493 -840 529 -898 585&#xA;-948 65 -59 143 -97 211 -104 50 -5 60 -2 149 45 52 27 143 70 202 95 201 86&#xA;260 121 547 325 318 226 534 448 648 667 58 112 244 551 281 665 62 186 76&#xA;276 76 480 -1 167 -3 194 -26 280 -41 152 -67 210 -116 262 -52 56 -88 69&#xA;-187 66 -38 -1 -439 -5 -890 -9z m736 -278 l23 -19 -19 -93 c-27 -130 -26&#xA;-226 5 -314 15 -44 24 -92 24 -130 0 -121 -88 -277 -263 -470 -115 -126 -141&#xA;-169 -172 -280 -51 -190 -95 -236 -339 -360 -187 -95 -205 -109 -356 -281 -45&#xA;-51 -93 -90 -180 -145 -144 -92 -173 -103 -205 -81 -54 38 -634 945 -1258&#xA;1967 l-122 200 1286 6 c706 3 1288 9 1292 12 3 4 64 7 134 7 109 0 130 -3 150&#xA;-19z"/>
<path d="M11513 7953 c-13 -3 -32 -16 -42 -29 -18 -23 -20 -36 -14 -140 l6&#xA;-114 -26 0 c-32 0 -60 26 -52 50 11 36 -123 33 -179 -4 -56 -36 -40 -134 35&#xA;-220 47 -53 151 -109 236 -126 88 -19 197 -9 268 24 97 44 135 91 135 165 0&#xA;51 -43 103 -105 127 -50 19 -75 14 -75 -15 0 -11 -9 -25 -20 -31 -15 -8 -24&#xA;-6 -40 10 -23 23 -21 43 17 128 49 111 23 157 -99 175 -13 2 -33 2 -45 0z"/>
<path d="M12675 7892 c-70 -23 -146 -100 -170 -171 -29 -89 -10 -189 50 -265&#xA;15 -19 16 -19 44 9 17 15 42 51 57 80 l28 53 32 -42 c57 -75 161 -137 253&#xA;-152 l44 -7 -6 58 c-8 76 -53 168 -111 224 l-45 44 63 21 c34 12 75 30 91 40&#xA;l29 19 -38 33 c-81 70 -211 92 -321 56z"/>
<path d="M12138 7507 c-93 -70 -140 -186 -119 -289 13 -62 65 -158 85 -158 25&#xA;0 100 64 133 113 17 26 37 73 44 104 11 48 11 65 -4 122 -19 72 -59 141 -81&#xA;141 -8 0 -34 -15 -58 -33z"/>
<path d="M12491 7055 c-174 -48 -269 -213 -215 -372 76 -225 377 -307 551&#xA;-149 81 73 112 192 77 302 -25 80 -114 172 -194 202 -79 29 -154 34 -219 17z&#xA;m39 -115 c14 -14 20 -33 20 -65 0 -52 -7 -55 -65 -22 -29 16 -41 30 -43 50 -6&#xA;55 48 77 88 37z m184 1 c28 -31 17 -63 -33 -90 -50 -27 -61 -20 -61 41 0 62&#xA;56 91 94 49z m-253 -153 c22 -12 39 -25 39 -29 0 -13 -67 -49 -90 -49 -50 0&#xA;-81 67 -42 89 26 16 51 13 93 -11z m347 6 c24 -17 29 -53 10 -72 -19 -19 -67&#xA;-14 -105 9 -38 24 -35 34 22 63 37 20 45 20 73 0z m-248 -163 c0 -54 -12 -71&#xA;-51 -71 -51 0 -77 51 -41 82 25 22 76 47 84 41 5 -2 8 -26 8 -52z m164 14 c14&#xA;-13 26 -31 26 -39 0 -39 -74 -63 -99 -32 -15 17 -26 80 -18 100 8 20 55 5 91&#xA;-29z"/>
<path d="M11884 6860 c-64 -26 -84 -115 -38 -169 38 -45 92 -57 147 -33 51 23&#xA;73 63 63 115 -13 70 -103 115 -172 87z"/>
<path d="M5735 8266 c-55 -24 -113 -101 -139 -185 -46 -145 -59 -229 -59 -376&#xA;-1 -158 15 -253 69 -431 39 -130 75 -214 236 -544 134 -275 203 -375 374 -540&#xA;135 -131 225 -201 480 -373 215 -145 277 -179 450 -250 62 -25 153 -66 203&#xA;-91 112 -57 157 -60 248 -17 120 57 119 55 623 931 706 1225 1040 1812 1047&#xA;1838 3 13 3 25 0 28 -5 6 -2271 23 -3002 23 -393 0 -506 -3 -530 -13z m3309&#xA;-118 c-42 -75 -1454 -2286 -1471 -2304 -38 -41 -73 -33 -218 54 -94 56 -146&#xA;94 -190 141 -187 198 -178 191 -362 285 -248 126 -298 178 -342 354 -29 116&#xA;-59 165 -178 295 -162 176 -254 326 -269 442 -5 31 0 64 17 117 31 99 31 203&#xA;0 332 -28 115 -25 127 40 139 24 4 703 40 1509 81 806 40 1466 74 1468 75 2 0&#xA;0 -5 -4 -11z"/>
<path d="M8038 7901 c-112 -37 -219 -124 -265 -216 -37 -72 -43 -168 -14 -227&#xA;40 -83 132 -110 220 -65 57 29 73 53 48 72 -29 21 -19 59 16 63 23 3 36 -5 70&#xA;-45 93 -106 106 -116 156 -110 37 4 52 13 83 46 67 71 53 102 -83 173 -56 29&#xA;-104 58 -106 65 -13 33 48 58 76 31 17 -18 66 37 82 93 16 50 1 83 -48 112&#xA;-49 28 -163 32 -235 8z"/>
<path d="M6955 7837 c-56 -56 -45 -126 25 -162 90 -47 203 20 186 110 -10 52&#xA;-47 78 -116 83 -57 4 -61 3 -95 -31z"/>
<path d="M6624 7550 c-65 -13 -136 -51 -179 -95 -116 -115 -113 -279 6 -390&#xA;78 -73 125 -90 249 -90 88 0 113 4 154 23 161 74 229 225 166 370 -57 131&#xA;-240 216 -396 182z m24 -112 c6 -6 12 -32 12 -60 0 -47 -1 -49 -22 -43 -49 15&#xA;-83 41 -86 67 -6 47 53 69 96 36z m202 -8 c17 -32 3 -57 -47 -81 -37 -18 -47&#xA;-19 -54 -8 -14 22 -11 62 7 87 20 30 79 31 94 2z m-280 -140 c22 -11 40 -23&#xA;40 -25 0 -14 -69 -45 -100 -45 -56 0 -79 39 -44 74 21 22 57 20 104 -4z m364&#xA;7 c28 -20 18 -69 -17 -81 -21 -8 -37 -5 -72 12 -25 12 -45 26 -45 32 0 13 69&#xA;49 96 50 11 0 28 -6 38 -13z m-274 -149 c0 -50 -22 -78 -61 -78 -33 0 -63 37&#xA;-53 64 7 19 70 55 97 56 13 0 17 -8 17 -42z m147 22 c44 -27 56 -51 37 -78&#xA;-18 -26 -60 -29 -86 -5 -12 11 -18 30 -18 60 0 50 15 55 67 23z"/>
<path d="M7240 7447 c0 -118 90 -236 210 -275 36 -11 90 -24 122 -27 69 -9 81&#xA;5 67 77 -18 100 -83 182 -174 224 -55 25 -136 44 -191 44 -33 0 -34 -1 -34&#xA;-43z"/>
<path d="M7350 6908 c1 -24 41 -103 66 -128 l24 -26 -83 -12 c-93 -13 -204&#xA;-62 -251 -111 l-28 -29 41 -21 c93 -48 244 -62 326 -31 14 5 25 8 25 5 0 -2&#xA;-7 -30 -15 -62 -17 -65 -18 -92 -6 -112 14 -21 110 12 169 58 173 137 118 394&#xA;-100 465 -61 20 -168 22 -168 4z"/>
<path d="M9668 8053 c-139 -203 -698 -1027 -1288 -1898 -238 -352 -442 -662&#xA;-453 -690 -25 -64 -26 -159 -3 -203 14 -27 37 -42 121 -81 57 -27 147 -75 200&#xA;-106 137 -80 199 -106 470 -195 386 -128 581 -172 835 -189 158 -11 283 -3&#xA;545 33 105 15 257 36 340 47 448 63 793 205 1060 436 95 83 140 154 132 212&#xA;-3 27 -187 313 -732 1136 -400 605 -811 1227 -914 1382 -102 156 -188 283&#xA;-192 283 -3 0 -57 -75 -121 -167z m708 -1088 c317 -528 642 -1067 721 -1199&#xA;95 -158 143 -248 143 -267 0 -37 -22 -50 -140 -84 -135 -38 -224 -83 -310&#xA;-155 -85 -72 -132 -95 -228 -115 -131 -27 -245 -28 -462 -5 -229 24 -262 22&#xA;-412 -21 -80 -23 -123 -30 -194 -30 -118 -1 -149 8 -334 96 -184 88 -235 102&#xA;-400 115 -137 10 -170 18 -338 84 -154 61 -165 68 -160 114 6 56 1507 2458&#xA;1524 2440 7 -7 272 -445 590 -973z"/>
<path d="M9533 7184 c11 -76 60 -165 123 -223 l55 -50 -38 -10 c-21 -6 -63&#xA;-25 -92 -42 l-55 -32 25 -20 c43 -36 132 -71 191 -75 236 -18 389 199 286 404&#xA;-12 24 -30 52 -41 62 -18 16 -20 15 -53 -23 -19 -22 -39 -56 -45 -75 -6 -19&#xA;-13 -38 -15 -42 -3 -3 -28 17 -57 46 -61 62 -158 111 -236 122 l-54 7 6 -49z"/>
<path d="M9365 6570 c-68 -28 -92 -115 -45 -165 38 -40 90 -52 144 -31 24 9&#xA;51 28 60 41 21 31 20 84 0 114 -30 42 -108 62 -159 41z"/>
<path d="M10043 6475 c-132 -29 -253 -129 -287 -239 -89 -282 225 -524 539&#xA;-416 151 52 249 178 249 321 0 126 -79 239 -208 300 -104 49 -183 58 -293 34z&#xA;m32 -130 c18 -17 25 -35 25 -62 0 -59 -10 -67 -56 -48 -78 33 -103 76 -64 115&#xA;27 27 66 25 95 -5z m229 4 c14 -11 26 -28 26 -38 0 -21 -33 -52 -78 -76 -48&#xA;-24 -62 -14 -62 40 0 35 6 52 25 70 30 30 54 31 89 4z m-309 -179 c19 -12 35&#xA;-26 35 -31 0 -6 -25 -22 -56 -36 -54 -25 -58 -25 -90 -9 -27 13 -34 21 -34 45&#xA;0 62 71 77 145 31z m428 -2 c22 -27 22 -43 -4 -69 -26 -26 -76 -22 -133 12&#xA;l-39 23 29 23 c56 45 113 49 147 11z m-331 -143 c6 -52 -12 -97 -44 -107 -72&#xA;-24 -120 58 -60 101 31 22 69 39 88 40 7 1 14 -15 16 -34z m183 1 c32 -17 41&#xA;-28 43 -53 5 -53 -57 -81 -106 -47 -19 13 -22 24 -22 75 0 58 1 60 23 54 12&#xA;-4 40 -17 62 -29z"/>
<path d="M8965 6140 c-17 -5 -44 -23 -60 -40 -38 -40 -46 -119 -16 -167 21&#xA;-34 35 -41 46 -23 9 15 51 12 65 -5 24 -29 -11 -59 -109 -94 -94 -34 -121 -56&#xA;-121 -99 0 -57 62 -126 114 -126 27 0 47 11 91 50 120 104 126 108 144 97 25&#xA;-16 26 -44 1 -63 l-22 -17 32 -37 c84 -96 177 -90 234 15 88 160 -11 399 -200&#xA;486 -60 27 -151 38 -199 23z"/>
<path d="M10460 5665 c-73 -21 -144 -68 -192 -129 l-40 -50 23 -17 c38 -29&#xA;117 -49 190 -49 113 0 218 51 285 139 19 24 34 47 34 51 0 4 -26 19 -58 33&#xA;-74 34 -169 42 -242 22z"/>
</g>
</svg>